<?xml version="1.0" encoding="UTF-8"?> <svg xmlns="http://www.w3.org/2000/svg" viewBox="0 0 110 110"><defs><style>.cls-1{fill:#f6cdbd;mix-blend-mode:multiply;stroke-width:0px;}.cls-2{fill:#fff;stroke:#004f40;stroke-linecap:round;stroke-linejoin:round;stroke-width:2px;}.cls-3{isolation:isolate;}</style></defs><g class="cls-3"><g id="Layer_1"><path class="cls-2" d="m43.23,83.37c-3.89.71-7.62,2.08-11.22,4.61-1.63,1.14-2.95,2.28-4.4,3.64-1.35,1.27-2.82,3.09-4.09,4.9,1.17-5.87,3.02-10.27,5.03-13.57l-11.96-.02-.05-46.16,62.16-.19c3.74,0,6.65.97,8.74,2.93,2.09,1.95,3.13,4.41,3.13,7.38l-.14,36c-7.38,0-43.13-.25-47.2.5Z"></path><path class="cls-1" d="m37.78,78.29c-3.89.71-7.62,2.08-11.22,4.61-1.63,1.14-2.95,2.28-4.4,3.64-1.35,1.27-2.82,3.09-4.09,4.9,1.17-5.87,3.02-10.27,5.03-13.57l-11.96-.02-.05-46.16,62.16-.19c3.74,0,6.65.97,8.74,2.93,2.09,1.95,3.13,4.41,3.13,7.38l-.14,36c-7.38,0-43.13-.25-47.2.5Z"></path><path class="cls-2" d="m75.32,54.36l23.15-22.15-23.15-21.15v13.7s-29.63-.59-28.25,40.02c0,0,7.83-27.63,28.25-24.27v13.86Z"></path></g></g></svg> 