<?xml version="1.0" encoding="UTF-8"?> <svg xmlns="http://www.w3.org/2000/svg" viewBox="0 0 110 110"><defs><style>.cls-1{stroke-width:1.85px;}.cls-1,.cls-2,.cls-3{fill:#fff;stroke-linecap:round;stroke-linejoin:round;}.cls-1,.cls-3{stroke:#5d0620;}.cls-2{stroke:#54141c;}.cls-2,.cls-3{stroke-width:2px;}.cls-4{mix-blend-mode:multiply;}.cls-5{isolation:isolate;}.cls-6{fill:#8fc1c1;stroke-width:0px;}</style></defs><g class="cls-5"><g id="Layer_1"><path class="cls-2" d="m16.64,44.53v45.64c0,1.77,1.5,3.21,3.34,3.21h67.93c1.85,0,3.34-1.44,3.34-3.21v-45.64c0-1.77-1.5-3.21-3.34-3.21H19.98c-1.85,0-3.34,1.44-3.34,3.21Z"></path><g class="cls-4"><path class="cls-6" d="m11.92,39.44v45.64c0,1.77,1.5,3.21,3.34,3.21h67.93c1.85,0,3.34-1.44,3.34-3.21v-45.64c0-1.77-1.5-3.21-3.34-3.21H15.26c-1.85,0-3.34,1.44-3.34,3.21Z"></path></g><line class="cls-2" x1="17.52" y1="48.86" x2="53.92" y2="70.19"></line><line class="cls-2" x1="54.39" y1="70.19" x2="90.79" y2="48.86"></line><circle class="cls-1" cx="53.71" cy="33.35" r="20.27"></circle><polygon class="cls-3" points="53.8 24.84 45.79 29.9 40.43 29.9 40.43 36.89 45.68 36.89 53.8 41.49 53.8 24.84"></polygon><path class="cls-3" d="m58.39,28.93c1.48.83,2.48,2.42,2.48,4.24s-.97,3.35-2.41,4.2"></path><path class="cls-3" d="m61.72,24.89c2.77,1.56,4.65,4.53,4.65,7.94s-1.82,6.28-4.52,7.86"></path></g></g></svg> 