<?xml version="1.0" encoding="UTF-8"?> <svg xmlns="http://www.w3.org/2000/svg" viewBox="0 0 110 110"><defs><style>.cls-1{fill:#8fc1c1;mix-blend-mode:multiply;stroke-width:0px;}.cls-2{fill:#fff;stroke:#54141c;stroke-linecap:round;stroke-linejoin:round;stroke-width:2px;}.cls-3{isolation:isolate;}</style></defs><g class="cls-3"><g id="Layer_1"><path class="cls-2" d="m63.41,15.06h29.35c1.53,0,2.77,1.24,2.77,2.77v56.27c0,1.53-1.24,2.77-2.77,2.77h-29.35c-1.53,0-2.77-1.24-2.77-2.77V17.83c0-1.53,1.24-2.77,2.77-2.77Z"></path><line class="cls-2" x1="61.06" y1="21.15" x2="95.05" y2="21.15"></line><line class="cls-2" x1="60.96" y1="69.12" x2="95.05" y2="69.12"></line><line class="cls-2" x1="73.28" y1="73" x2="82.32" y2="73"></line><path class="cls-2" d="m39.53,25.96h29.35c1.53,0,2.77,1.24,2.77,2.77v56.27c0,1.53-1.24,2.77-2.77,2.77h-29.35c-1.53,0-2.77-1.24-2.77-2.77V28.73c0-1.53,1.24-2.77,2.77-2.77Z"></path><line class="cls-2" x1="37.18" y1="32.05" x2="71.17" y2="32.05"></line><line class="cls-2" x1="37.08" y1="80.02" x2="71.17" y2="80.02"></line><line class="cls-2" x1="49.4" y1="83.89" x2="58.44" y2="83.89"></line><path class="cls-2" d="m15.82,36.86h29.35c1.53,0,2.77,1.24,2.77,2.77v56.27c0,1.53-1.24,2.77-2.77,2.77H15.82c-1.53,0-2.77-1.24-2.77-2.77v-56.27c0-1.53,1.24-2.77,2.77-2.77Z"></path><line class="cls-2" x1="13.48" y1="42.95" x2="47.46" y2="42.95"></line><line class="cls-2" x1="13.37" y1="90.92" x2="47.46" y2="90.92"></line><line class="cls-2" x1="25.69" y1="94.79" x2="34.73" y2="94.79"></line><path class="cls-1" d="m45.05,23.98c-7.77,0-14.21,2.73-19.31,8.2-5.11,5.47-7.66,13.09-7.66,22.87v34.08h70.8V24.08l-43.83-.11Z"></path></g></g></svg> 