<?xml version="1.0" encoding="UTF-8"?> <svg xmlns="http://www.w3.org/2000/svg" viewBox="0 0 110 110"><defs><style>.cls-1{fill:#ffca76;mix-blend-mode:multiply;stroke-width:0px;}.cls-2{fill:#fff;stroke:#004f40;stroke-linecap:round;stroke-linejoin:round;stroke-width:2px;}.cls-3{isolation:isolate;}</style></defs><g class="cls-3"><g id="Layer_1"><path class="cls-2" d="m76.56,22.49c3.26-.6,6.39-1.74,9.41-3.86,1.36-.96,2.48-1.91,3.69-3.05,1.14-1.07,2.36-2.59,3.43-4.11-.98,4.92-2.53,8.62-4.22,11.38l10.03.02.04,38.71-56.52.16c-3.13,0-5.58-.82-7.33-2.45-1.75-1.64-2.63-3.7-2.63-6.19l.12-30.19c6.19,0,40.56.21,43.98-.42Z"></path><path class="cls-2" d="m35.81,87.49c-3.51.64-6.87,1.87-10.11,4.15-1.46,1.03-2.66,2.06-3.97,3.28-1.22,1.15-2.54,2.78-3.69,4.41,1.05-5.28,2.72-9.26,4.53-12.23l-10.77-.02-.04-41.59,60.72-.17c3.37,0,5.99.88,7.87,2.64,1.88,1.76,2.82,3.97,2.82,6.65l-.13,32.43c-6.65,0-43.57-.23-47.24.45Z"></path><path class="cls-1" d="m31.86,82.24c-3.45.63-6.75,1.84-9.94,4.08-1.44,1.01-2.62,2.02-3.9,3.23-1.2,1.13-2.49,2.73-3.63,4.34,1.03-5.2,2.68-9.1,4.46-12.03l-10.59-.02-.04-40.9,59.71-.16c3.31,0,5.89.86,7.74,2.59,1.85,1.73,2.78,3.91,2.78,6.54l-.12,31.89c-6.54,0-42.85-.22-46.46.44Z"></path></g></g></svg> 