<?xml version="1.0" encoding="UTF-8"?> <svg xmlns="http://www.w3.org/2000/svg" viewBox="0 0 110 110"><defs><style>.cls-1{fill:#fff;}.cls-1,.cls-2{stroke:#54141c;stroke-linecap:round;stroke-linejoin:round;stroke-width:2px;}.cls-3{mix-blend-mode:multiply;}.cls-2{fill:none;}.cls-4{isolation:isolate;}.cls-5{fill:#f6683e;stroke-width:0px;}</style></defs><g class="cls-4"><g id="Layer_1"><path class="cls-2" d="m71.32,41.95c4.86,2.78,8.11,8.04,8.06,14.03-.05,5.9-3.29,11.03-8.07,13.76"></path><path class="cls-2" d="m83.31,26.58c10.23,5.86,17.08,16.92,16.97,29.55s-6.93,23.22-16.99,28.98"></path><path class="cls-2" d="m77.21,34.89c7.32,4.2,12.23,12.12,12.15,21.16-.08,8.9-4.96,16.63-12.17,20.75"></path><rect class="cls-1" x="14.83" y="14.33" width="46.86" height="83.03" rx="3.72" ry="3.72"></rect><line class="cls-1" x1="15.4" y1="22.51" x2="61.06" y2="22.51"></line><line class="cls-1" x1="15.26" y1="86.95" x2="61.06" y2="86.95"></line><line class="cls-1" x1="31.81" y1="92.15" x2="43.95" y2="92.15"></line><g class="cls-3"><rect class="cls-5" x="11.12" y="10.7" width="46.86" height="83.03" rx="3.72" ry="3.72"></rect></g></g></g></svg> 